<svg xmlns="http://www.w3.org/2000/svg" viewBox="0 0 512 512">
  <defs>
    <linearGradient id="g" x1="0" x2="1" y1="0" y2="1">
      <stop offset="0%" stop-color="#0052FF"/>
      <stop offset="100%" stop-color="#3B82F6"/>
    </linearGradient>
  </defs>
  <circle cx="256" cy="256" r="240" fill="url(#g)"/>
  <circle cx="256" cy="256" r="220" fill="none" stroke="rgba(255,255,255,0.25)" stroke-width="12"/>
  <g fill="#fff" font-family="Inter, system-ui, Arial, sans-serif" font-weight="800" text-anchor="middle">
    <text x="256" y="288" font-size="120" letter-spacing="2">402</text>
    <text x="256" y="360" font-size="64" letter-spacing="4">DOG</text>
  </g>
  <g fill="#fff">
    <path d="M178 220c-18 0-30-10-30-26 0-24 24-42 54-42 22 0 38 8 49 22 4 6 13 6 17 0 11-14 27-22 49-22 30 0 54 18 54 42 0 16-12 26-30 26h-9c-11 0-20-9-20-20 0-11 9-20 20-20 7 0 12 3 16 8-3-18-20-30-41-30-17 0-31 7-40 18-5 7-15 7-20 0-9-11-23-18-40-18-21 0-38 12-41 30 4-5 9-8 16-8 11 0 20 9 20 20 0 11-9 20-20 20h-9z" opacity="0.12"/>
  </g>
</svg>
